<svg xmlns="http://www.w3.org/2000/svg" width="500" height="500" viewBox="0 0 500 500">
  <symbol id="all"><circle cx="250" cy="250" r="230" /></symbol>
  <symbol id="hexagonals">
    <path d="M50.8 135v230l66.4-115-66.4-115zm398.4 0L250 20l66.4 115h132.8zM50.8 365L250 480l-66.4-115H50.8zM250 20L50.8 135h132.8L250 20zm132.8 230l66.4 115V135l-66.4 115zM250 480l199.2-115H316.4L250 480zm66.3-344.9L250 173.4l-66.3-38.3v76.6L117.3 250l66.4 38.3v76.6l66.3-38.3 66.3 38.3v-76.6l66.4-38.3-66.4-38.3v-76.6z"/>
  </symbol>
  <symbol id="octagonals">
    <path d="M132.8 298.6l1.3-1.3L20 250l67.4 162.6 47.2-114h-1.8zm68.6-165.8l1.3 1.3L250 20 87.4 87.4l114 47.2v-1.8zm-68.6 68.6h1.8l-47.2-114L20 250l114-47.3-1.2-1.3zm165.8-68.6v1.8l114-47.2L250 20l47.3 114 1.3-1.2zm67.3 70l-.9-.4.4-1h-66.8v-66.8l-1 .4-.3-1-47.3 47.3-47.3-47.2-.3.9-1-.4v66.8h-66.8l.4 1-1 .3 47.3 47.3-47.2 47.3.9.3-.4 1h66.8v66.8l1-.4.3 1 47.3-47.3 47.3 47.2.3-.9 1 .4v-66.8h66.8l-.4-1 1-.3-47.3-47.3 47.2-47.3zm1.3-1.4l-1.3 1.3L480 250 412.6 87.4l-47.2 114h1.8zM201.4 367.2v-1.8l-114 47.2L250 480l-47.3-114-1.3 1.2zm97.2 0l-1.3-1.3L250 480l162.6-67.4-114-47.2v1.8zm67.3-70l1.3 1.4h-1.8l47.2 114L480 250l-114 47.3z"/>
  </symbol>
  <symbol id="dodecagonals">
    <path d="M133.8 281.1l.8-.4L20 250l30.8 115 83.9-83.9h-.9zm0-62.2h.9L50.8 135 20 250l114.6-30.7-.8-.4zm201.2-54l-.4.8L449.2 135 365 50.8l-30.7 114.6.7-.4zm-170 0l.7.5L135 50.8 50.8 135l114.6 30.7-.4-.7zM281 134v.8L365 50.8 250 20l30.7 114.6.4-.8zM165 335l.4-.7L50.8 365l84.2 84.2 30.7-114.6-.7.4zM281 366.2l-.4-.8L250 480l115-30.8-83.9-83.9v.9zm54-31.2l-.8-.4L365 449.2l84.2-84.2-114.6-30.7.4.7zm30.3-115.7l-.4-.1.3-.3H304l30.7-53.2-.4.1.1-.4-53.2 30.7v-61.4l-.3.3-.1-.4-30.7 53.1-30.7-53.1-.1.4-.3-.3V196l-53.2-30.7.1.4-.4-.1 30.7 53.2h-61.4l.3.3-.4.1 53.1 30.7-53.1 30.7.4.1-.3.3H196l-30.7 53.2.4-.1-.1.4 53.2-30.7v61.4l.3-.3.1.4 30.7-53.1 30.7 53.1.1-.4.3.3V304l53.2 30.7-.1-.4.4.1-30.7-53.2h61.4l-.3-.3.4-.1-53.1-30.7 53.1-30.7zm0 61.4l.8.4h-.9l83.9 83.9L480 250l-114.6 30.7zM219 133.8l.4.8L250 20 135 50.8l83.9 83.9v-.9zm0 232.4v-.9L135 449.2 250 480l-30.7-114.6-.4.8zm147.3-147.3l-.8.4L480 250l-30.8-115-83.9 83.9h.9z"/>
  </symbol>
</svg>
